<svg xmlns="http://www.w3.org/2000/svg" viewBox="0 0 64 64" role="img" aria-label="BeautyPro">
  <defs>
    <linearGradient id="bg" x1="10" y1="8" x2="56" y2="58" gradientUnits="userSpaceOnUse">
      <stop stop-color="#7C3AED"/>
      <stop offset=".55" stop-color="#C026D3"/>
      <stop offset="1" stop-color="#F43F5E"/>
    </linearGradient>
    <linearGradient id="shine" x1="18" y1="13" x2="46" y2="51" gradientUnits="userSpaceOnUse">
      <stop stop-color="#FFFFFF"/>
      <stop offset="1" stop-color="#FDE7F3"/>
    </linearGradient>
  </defs>
  <rect width="64" height="64" rx="16" fill="url(#bg)"/>
  <path d="M32 11l3.8 11.4L47 26.2l-11.2 3.9L32 41.5l-3.8-11.4L17 26.2l11.2-3.8L32 11z" fill="url(#shine)"/>
  <path d="M45.5 38.5l1.9 5.6 5.6 1.9-5.6 1.9-1.9 5.6-1.9-5.6-5.6-1.9 5.6-1.9 1.9-5.6zM18.5 39l1.4 4.1 4.1 1.4-4.1 1.4-1.4 4.1-1.4-4.1-4.1-1.4 4.1-1.4 1.4-4.1z" fill="#FFF7ED"/>
  <path d="M22 54c4.2-7.3 15.8-7.3 20 0" fill="none" stroke="#FFFFFF" stroke-width="4" stroke-linecap="round"/>
</svg>
